<?xml version="1.0" encoding="utf-8"?>
<!-- Generator: Adobe Illustrator 22.1.0, SVG Export Plug-In . SVG Version: 6.00 Build 0)  -->
<svg version="1.1" id="Layer_1" xmlns="http://www.w3.org/2000/svg" xmlns:xlink="http://www.w3.org/1999/xlink" x="0px" y="0px"
	 viewBox="0 0 1000 1000" style="enable-background:new 0 0 1000 1000;" xml:space="preserve">
<style type="text/css">
	.st0{fill:url(#SVGID_1_);}
	.st1{fill:url(#SVGID_2_);}
</style>
<g>
	<linearGradient id="SVGID_1_" gradientUnits="userSpaceOnUse" x1="12.3514" y1="989.5726" x2="847.3333" y2="154.5907">
		<stop  offset="0" style="stop-color:#EE0979"/>
		<stop  offset="0.123" style="stop-color:#EF1272"/>
		<stop  offset="0.3237" style="stop-color:#F22A5F"/>
		<stop  offset="0.577" style="stop-color:#F65240"/>
		<stop  offset="0.8702" style="stop-color:#FC8915"/>
		<stop  offset="1" style="stop-color:#FFA300"/>
	</linearGradient>
	<path class="st0" d="M990,501.1c1.1,87-20.4,172.8-62.6,248.9C845,899.7,683.9,991.9,512.8,990h-148V812.6h148
		c109.7,1.3,208.3-56.5,261-152.5c27-48.8,40.8-103.7,40.1-159.5c0.7-56.1-13.6-111.3-41.3-160.1c-26.6-47.2-65.4-86.3-112.5-113.2
		c-48.8-27.7-104.2-41.9-160.4-41.1c-56-0.7-111.1,13.5-159.8,41.1c-47.2,27-86.1,66.3-112.7,113.7C199.6,389.8,185.4,445,186,501.1
		v128.1l0,0V990H10V500c0-85.6,21.1-172.7,64.3-248.9c41.6-73.9,102.5-135.1,176.2-177C326.4,31,412.4,8.9,499.7,10
		c87.5-1.1,173.7,21,249.7,64.2c73.7,42,134.6,103.2,176.2,177C968.8,327.4,991,413.6,990,501.1z"/>
	<linearGradient id="SVGID_2_" gradientUnits="userSpaceOnUse" x1="11.6945" y1="988.9158" x2="846.6765" y2="153.9338">
		<stop  offset="0" style="stop-color:#EE0979"/>
		<stop  offset="0.123" style="stop-color:#EF1272"/>
		<stop  offset="0.3237" style="stop-color:#F22A5F"/>
		<stop  offset="0.577" style="stop-color:#F65240"/>
		<stop  offset="0.8702" style="stop-color:#FC8915"/>
		<stop  offset="1" style="stop-color:#FFA300"/>
	</linearGradient>
	<path class="st1" d="M364.8,500.2v135h139.5c47.2,0.6,90.8-24.8,113.6-66.1c11.6-21,17.6-44.7,17.3-68.7
		c0.3-24.1-5.9-47.9-17.8-68.9c-11.5-20.4-28.2-37.2-48.6-48.8c-42.8-23.7-94.8-23.7-137.6,0c-20.4,11.6-37.2,28.4-48.6,48.8
		C370.6,452.4,364.5,476.1,364.8,500.2z"/>
</g>
</svg>
